<?xml version="1.0" encoding="utf-8"?>
<!-- Generator: Adobe Illustrator 16.0.0, SVG Export Plug-In . SVG Version: 6.00 Build 0)  -->
<!DOCTYPE svg PUBLIC "-//W3C//DTD SVG 1.1//EN" "http://www.w3.org/Graphics/SVG/1.1/DTD/svg11.dtd">
<svg version="1.1" id="图层_1" xmlns="http://www.w3.org/2000/svg" xmlns:xlink="http://www.w3.org/1999/xlink" x="0px" y="0px"
	 width="480px" height="380px" viewBox="24.4 74.4 480 380" enable-background="new 24.4 74.4 480 380" xml:space="preserve">
<g>
	<g>
		<g>
			<path fill="none" stroke="#000000" stroke-width="2" d="M202.027,253.19l-46.142-127.1"/>
			<path fill="none" stroke="#000000" stroke-width="30" stroke-opacity="0" d="M202.027,253.19l-46.142-127.1"/>
		</g>
		<g>
			<path fill="none" stroke="#FF0000" stroke-width="2" d="M202.027,253.19L72.2,231.073"/>
			<path fill="none" stroke="#FF0000" stroke-width="30" stroke-opacity="0" d="M202.027,253.19L72.2,231.073"/>
		</g>
		<g>
			<path fill="none" stroke="#FF0000" stroke-width="2" d="M327.533,274.573l129.066,24.834"/>
			<path fill="none" stroke="#FF0000" stroke-width="30" stroke-opacity="0" d="M327.533,274.573l129.066,24.834"/>
		</g>
		<g>
			<path fill="none" stroke="#000000" stroke-width="2" d="M327.533,274.573l-84.464,106.139"/>
			<path fill="none" stroke="#000000" stroke-width="30" stroke-opacity="0" d="M327.533,274.573l-84.464,106.139"/>
		</g>
		<g>
			<path fill="none" stroke="#000000" stroke-width="2" d="M327.533,274.573l-44.235-128.189"/>
			<path fill="none" stroke="#000000" stroke-width="30" stroke-opacity="0" d="M327.533,274.573l-44.235-128.189"/>
		</g>
		<g>
			<path fill="none" stroke="#000000" stroke-width="2" d="M327.533,274.573l42.771,128.137"/>
			<path fill="none" stroke="#000000" stroke-width="30" stroke-opacity="0" d="M327.533,274.573l42.771,128.137"/>
		</g>
		<g>
			<path fill="none" stroke="#000000" stroke-width="2" d="M202.027,253.19l-85.816,104.658"/>
			<path fill="none" stroke="#000000" stroke-width="30" stroke-opacity="0" d="M202.027,253.19l-85.816,104.658"/>
		</g>
		<g>
			<path fill="none" stroke="#FF0000" stroke-width="2" d="M456.599,299.407l-46.308-128.336"/>
			<path fill="none" stroke="#FF0000" stroke-width="30" stroke-opacity="0" d="M456.599,299.407l-46.308-128.336"/>
		</g>
		<g>
			<path fill="none" stroke="#FF0000" stroke-width="2" d="M202.027,253.19l125.506,21.383"/>
			<path fill="none" stroke="#FF0000" stroke-width="30" stroke-opacity="0" d="M202.027,253.19l125.506,21.383"/>
		</g>
	</g>
	<g>
		<g>
			<circle fill="#FFFFFF" stroke="#000000" stroke-width="2" cx="202.027" cy="253.19" r="19"/>
			<text transform="matrix(1 0 0 1 198.134 258.0901)" font-family="'ArialMT'" font-size="14">1</text>
			<text transform="matrix(1 0 0 1 198.134 258.0901)" fill="none" stroke="#000000" font-family="'ArialMT'" font-size="14">1</text>
		</g>
		<g>
			<circle fill="#FFFFFF" stroke="#000000" stroke-width="2" cx="155.885" cy="126.091" r="19"/>
			<text transform="matrix(1 0 0 1 151.9924 130.9915)" font-family="'ArialMT'" font-size="14">2</text>
			<text transform="matrix(1 0 0 1 151.9924 130.9915)" fill="none" stroke="#000000" font-family="'ArialMT'" font-size="14">2</text>
		</g>
		<g>
			<circle fill="#FFFFFF" stroke="#000000" stroke-width="2" cx="72.2" cy="231.073" r="19"/>
			<text transform="matrix(1 0 0 1 68.3074 235.9729)" font-family="'ArialMT'" font-size="14">3</text>
			<text transform="matrix(1 0 0 1 68.3074 235.9729)" fill="none" stroke="#000000" font-family="'ArialMT'" font-size="14">3</text>
		</g>
		<g>
			<circle fill="#FFFFFF" stroke="#000000" stroke-width="2" cx="116.211" cy="357.848" r="19"/>
			<text transform="matrix(1 0 0 1 112.3181 362.7478)" font-family="'ArialMT'" font-size="14">4</text>
			<text transform="matrix(1 0 0 1 112.3181 362.7478)" fill="none" stroke="#000000" font-family="'ArialMT'" font-size="14">4</text>
		</g>
		<g>
			<circle fill="#FFFFFF" stroke="#000000" stroke-width="2" cx="327.533" cy="274.573" r="19"/>
			<text transform="matrix(1 0 0 1 323.6404 279.4744)" font-family="'ArialMT'" font-size="14">5</text>
			<text transform="matrix(1 0 0 1 323.6404 279.4744)" fill="none" stroke="#000000" font-family="'ArialMT'" font-size="14">5</text>
		</g>
		<g>
			<circle fill="#FFFFFF" stroke="#000000" stroke-width="2" cx="410.292" cy="171.071" r="19"/>
			<text transform="matrix(1 0 0 1 402.5056 175.9709)" font-family="'ArialMT'" font-size="14">10</text>
			<text transform="matrix(1 0 0 1 402.5056 175.9709)" fill="none" stroke="#000000" font-family="'ArialMT'" font-size="14">10</text>
		</g>
		<g>
			<circle fill="#FFFFFF" stroke="#000000" stroke-width="2" cx="283.298" cy="146.384" r="19"/>
			<text transform="matrix(1 0 0 1 279.4041 151.2834)" font-family="'ArialMT'" font-size="14">8</text>
			<text transform="matrix(1 0 0 1 279.4041 151.2834)" fill="none" stroke="#000000" font-family="'ArialMT'" font-size="14">8</text>
		</g>
		<g>
			<circle fill="#FFFFFF" stroke="#000000" stroke-width="2" cx="456.599" cy="299.407" r="19"/>
			<text transform="matrix(1 0 0 1 452.7068 304.3064)" font-family="'ArialMT'" font-size="14">6</text>
			<text transform="matrix(1 0 0 1 452.7068 304.3064)" fill="none" stroke="#000000" font-family="'ArialMT'" font-size="14">6</text>
		</g>
		<g>
			<circle fill="#FFFFFF" stroke="#000000" stroke-width="2" cx="243.069" cy="380.712" r="19"/>
			<text transform="matrix(1 0 0 1 239.1765 385.613)" font-family="'ArialMT'" font-size="14">7</text>
			<text transform="matrix(1 0 0 1 239.1765 385.613)" fill="none" stroke="#000000" font-family="'ArialMT'" font-size="14">7</text>
		</g>
		<g>
			<circle fill="#FFFFFF" stroke="#000000" stroke-width="2" cx="370.304" cy="402.71" r="19"/>
			<text transform="matrix(1 0 0 1 366.4109 407.6091)" font-family="'ArialMT'" font-size="14">9</text>
			<text transform="matrix(1 0 0 1 366.4109 407.6091)" fill="none" stroke="#000000" font-family="'ArialMT'" font-size="14">9</text>
		</g>
	</g>
</g>
</svg>
