<?xml version="1.0" encoding="utf-8"?>
<!-- Generator: Adobe Illustrator 16.0.0, SVG Export Plug-In . SVG Version: 6.00 Build 0)  -->
<!DOCTYPE svg PUBLIC "-//W3C//DTD SVG 1.1//EN" "http://www.w3.org/Graphics/SVG/1.1/DTD/svg11.dtd">
<svg version="1.1" id="图层_1" xmlns="http://www.w3.org/2000/svg" xmlns:xlink="http://www.w3.org/1999/xlink" x="0px" y="0px"
	 width="480px" height="380px" viewBox="-0.217 1.616 480 380" enable-background="new -0.217 1.616 480 380" xml:space="preserve">
<g>
	<g>
		<g>
			<path fill="none" stroke="#000000" stroke-width="2" d="M179.611,180.688l-47.873-126.91"/>
			<path fill="none" stroke="#000000" stroke-width="30" stroke-opacity="0" d="M179.611,180.688l-47.873-126.91"/>
		</g>
		<g>
			<path fill="none" stroke="#000000" stroke-width="2" d="M179.611,180.688L49.183,158.626"/>
			<path fill="none" stroke="#000000" stroke-width="30" stroke-opacity="0" d="M179.611,180.688L49.183,158.626"/>
		</g>
		<g>
			<path fill="none" stroke="#000000" stroke-width="2" d="M300.755,201.329l129.628,25.137"/>
			<path fill="none" stroke="#000000" stroke-width="30" stroke-opacity="0" d="M300.755,201.329l129.628,25.137"/>
		</g>
		<g>
			<path fill="none" stroke="#000000" stroke-width="2" d="M300.755,201.329l-82.511,107.772"/>
			<path fill="none" stroke="#000000" stroke-width="30" stroke-opacity="0" d="M300.755,201.329l-82.511,107.772"/>
		</g>
		<g>
			<path fill="none" stroke="#000000" stroke-width="2" d="M300.755,201.329l-41.802-129.14"/>
			<path fill="none" stroke="#000000" stroke-width="30" stroke-opacity="0" d="M300.755,201.329l-41.802-129.14"/>
		</g>
		<g>
			<path fill="none" stroke="#000000" stroke-width="2" d="M300.755,201.329l44.349,128.126"/>
			<path fill="none" stroke="#000000" stroke-width="30" stroke-opacity="0" d="M300.755,201.329l44.349,128.126"/>
		</g>
		<g>
			<path fill="none" stroke="#000000" stroke-width="2" d="M179.611,180.688L92.308,284.777"/>
			<path fill="none" stroke="#000000" stroke-width="30" stroke-opacity="0" d="M179.611,180.688L92.308,284.777"/>
		</g>
		<g>
			<path fill="none" stroke="#000000" stroke-width="2" d="M430.383,226.466L385.151,98.352"/>
			<path fill="none" stroke="#000000" stroke-width="30" stroke-opacity="0" d="M430.383,226.466L385.151,98.352"/>
		</g>
	</g>
	<g>
		<g>
			<circle fill="#FFFFFF" stroke="#000000" stroke-width="2" cx="179.611" cy="180.688" r="19"/>
			<text transform="matrix(1 0 0 1 175.718 185.5876)" font-family="'ArialMT'" font-size="14">1</text>
			<text transform="matrix(1 0 0 1 175.718 185.5876)" fill="none" stroke="#000000" font-family="'ArialMT'" font-size="14">1</text>
		</g>
		<g>
			<circle fill="#FFFFFF" stroke="#000000" stroke-width="2" cx="131.738" cy="53.778" r="19"/>
			<text transform="matrix(1 0 0 1 127.845 58.6785)" font-family="'ArialMT'" font-size="14">2</text>
			<text transform="matrix(1 0 0 1 127.845 58.6785)" fill="none" stroke="#000000" font-family="'ArialMT'" font-size="14">2</text>
		</g>
		<g>
			<circle fill="#FFFFFF" stroke="#000000" stroke-width="2" cx="49.183" cy="158.626" r="19"/>
			<text transform="matrix(1 0 0 1 45.2903 163.5261)" font-family="'ArialMT'" font-size="14">3</text>
			<text transform="matrix(1 0 0 1 45.2903 163.5261)" fill="none" stroke="#000000" font-family="'ArialMT'" font-size="14">3</text>
		</g>
		<g>
			<circle fill="#FFFFFF" stroke="#000000" stroke-width="2" cx="92.308" cy="284.778" r="19"/>
			<text transform="matrix(1 0 0 1 88.4148 289.6785)" font-family="'ArialMT'" font-size="14">4</text>
			<text transform="matrix(1 0 0 1 88.4148 289.6785)" fill="none" stroke="#000000" font-family="'ArialMT'" font-size="14">4</text>
		</g>
		<g>
			<circle fill="#FFFFFF" stroke="#000000" stroke-width="2" cx="300.755" cy="201.329" r="19"/>
			<text transform="matrix(1 0 0 1 296.8621 206.2292)" font-family="'ArialMT'" font-size="14">5</text>
			<text transform="matrix(1 0 0 1 296.8621 206.2292)" fill="none" stroke="#000000" font-family="'ArialMT'" font-size="14">5</text>
		</g>
		<g>
			<circle fill="#FFFFFF" stroke="#000000" stroke-width="2" cx="385.151" cy="98.352" r="19"/>
			<text transform="matrix(1 0 0 1 377.365 103.2527)" font-family="'ArialMT'" font-size="14">10</text>
			<text transform="matrix(1 0 0 1 377.365 103.2527)" fill="none" stroke="#000000" font-family="'ArialMT'" font-size="14">10</text>
		</g>
		<g>
			<circle fill="#FFFFFF" stroke="#000000" stroke-width="2" cx="258.953" cy="72.189" r="19"/>
			<text transform="matrix(1 0 0 1 255.0598 77.0896)" font-family="'ArialMT'" font-size="14">8</text>
			<text transform="matrix(1 0 0 1 255.0598 77.0896)" fill="none" stroke="#000000" font-family="'ArialMT'" font-size="14">8</text>
		</g>
		<g>
			<circle fill="#FFFFFF" stroke="#000000" stroke-width="2" cx="430.383" cy="226.466" r="19"/>
			<text transform="matrix(1 0 0 1 426.49 231.366)" font-family="'ArialMT'" font-size="14">6</text>
			<text transform="matrix(1 0 0 1 426.49 231.366)" fill="none" stroke="#000000" font-family="'ArialMT'" font-size="14">6</text>
		</g>
		<g>
			<circle fill="#FFFFFF" stroke="#000000" stroke-width="2" cx="218.244" cy="309.101" r="19"/>
			<text transform="matrix(1 0 0 1 214.3513 314.0017)" font-family="'ArialMT'" font-size="14">7</text>
			<text transform="matrix(1 0 0 1 214.3513 314.0017)" fill="none" stroke="#000000" font-family="'ArialMT'" font-size="14">7</text>
		</g>
		<g>
			<circle fill="#FFFFFF" stroke="#000000" stroke-width="2" cx="345.103" cy="329.455" r="19"/>
			<text transform="matrix(1 0 0 1 341.2107 334.3542)" font-family="'ArialMT'" font-size="14">9</text>
			<text transform="matrix(1 0 0 1 341.2107 334.3542)" fill="none" stroke="#000000" font-family="'ArialMT'" font-size="14">9</text>
		</g>
	</g>
</g>
</svg>
